<?xml version="1.0" encoding="UTF-8"?><svg id="Layer_2" xmlns="http://www.w3.org/2000/svg" viewBox="0 0 783.79 267.17"><defs><style>.cls-1{fill:#fff;}.cls-2{fill:none;stroke:#fff;stroke-miterlimit:10;stroke-width:5px;}</style></defs><g id="Layer_1-2"><g><g><path class="cls-2" d="M43.8,2.5H739.99c22.81,0,41.3,17.57,41.3,39.25V225.42c0,21.68-18.49,39.25-41.3,39.25H43.8c-22.81,0-41.3-17.57-41.3-39.25V41.75C2.5,20.07,20.99,2.5,43.8,2.5Z"/><path class="cls-2" d="M43.8,2.5H739.99c22.81,0,41.3,17.57,41.3,39.25V225.42c0,21.68-18.49,39.25-41.3,39.25H43.8c-22.81,0-41.3-17.57-41.3-39.25V41.75C2.5,20.07,20.99,2.5,43.8,2.5Z"/><path class="cls-2" d="M43.8,2.5H739.99c22.81,0,41.3,17.57,41.3,39.25V225.42c0,21.68-18.49,39.25-41.3,39.25H43.8c-22.81,0-41.3-17.57-41.3-39.25V41.75C2.5,20.07,20.99,2.5,43.8,2.5Z"/><path class="cls-2" d="M43.8,2.5H739.99c22.81,0,41.3,17.57,41.3,39.25V225.42c0,21.68-18.49,39.25-41.3,39.25H43.8c-22.81,0-41.3-17.57-41.3-39.25V41.75C2.5,20.07,20.99,2.5,43.8,2.5Z"/><path class="cls-2" d="M43.8,2.5H739.99c22.81,0,41.3,17.57,41.3,39.25V225.42c0,21.68-18.49,39.25-41.3,39.25H43.8c-22.81,0-41.3-17.57-41.3-39.25V41.75C2.5,20.07,20.99,2.5,43.8,2.5Z"/><path class="cls-2" d="M43.8,2.5H739.99c22.81,0,41.3,17.57,41.3,39.25V225.42c0,21.68-18.49,39.25-41.3,39.25H43.8c-22.81,0-41.3-17.57-41.3-39.25V41.75C2.5,20.07,20.99,2.5,43.8,2.5Z"/><path class="cls-2" d="M43.8,2.5H739.99c22.81,0,41.3,17.57,41.3,39.25V225.42c0,21.68-18.49,39.25-41.3,39.25H43.8c-22.81,0-41.3-17.57-41.3-39.25V41.75C2.5,20.07,20.99,2.5,43.8,2.5Z"/></g><g><g><g><path class="cls-1" d="M170.58,120.68c-2.74-4.94-6.57-8.76-11.52-11.45-4.94-2.68-10.54-4.03-16.8-4.03s-12.22,1.38-17.2,4.15c-4.98,2.77-8.86,6.73-11.62,11.87-2.77,5.14-4.16,11.12-4.16,17.92s1.41,12.66,4.21,17.8c2.81,5.15,6.73,9.12,11.75,11.93,5.02,2.81,10.7,4.21,17.02,4.21,7.84,0,14.45-2.04,19.82-6.11,4.66-3.53,8.02-7.91,10.06-13.14,.46-1.18-.4-2.46-1.67-2.46h-14.34c-.66,0-1.24,.38-1.56,.95-2.65,4.67-6.88,7.01-12.68,7.01-4.27,0-7.86-1.35-10.79-4.04-2.93-2.68-4.59-6.41-4.98-11.15h16.4s30.1,0,30.1,0c.92,0,1.68-.7,1.78-1.61,.17-1.48,.25-3.07,.25-4.8,0-6.41-1.37-12.09-4.09-17.03Zm-15.06,12.28h-29.27c.64-4.43,2.36-7.89,5.17-10.39,2.8-2.49,6.27-3.74,10.37-3.74,4.35,0,8.04,1.29,11.04,3.87,2.51,2.14,4,4.88,4.46,8.21,.15,1.08-.7,2.04-1.78,2.04Z"/><path class="cls-1" d="M313.57,109.25h-13.53c-.64,0-1.21,.41-1.41,1.02l-8.19,24.88-7.2,21.84s0-.01-.01-.04l-15.38-46.67c-.2-.61-.77-1.02-1.41-1.02h-13.64c-1.03,0-1.75,1.03-1.39,2l21.81,59.25c.21,.58,.77,.97,1.39,.97h17.02c.47,0,.9-.22,1.18-.59,.06-.05,.11-.11,.14-.19l7.98-21.56,14.02-37.88c.36-.97-.36-2-1.39-2Z"/><path class="cls-1" d="M242.96,109.25h-13.53c-.64,0-1.21,.41-1.41,1.02l-8.19,24.88-7.2,21.84s0-.01-.01-.04l-15.38-46.67c-.2-.61-.77-1.02-1.41-1.02h-13.64c-1.03,0-1.75,1.03-1.39,2l21.81,59.25c.21,.58,.77,.97,1.39,.97h17.02c.47,0,.9-.22,1.18-.59,.06-.05,.11-.11,.14-.19l.07-.19h0s7.9-21.36,7.9-21.36l14.02-37.88c.36-.97-.36-2-1.39-2Z"/><g><path class="cls-1" d="M370.81,109.38c-4.92-2.67-10.48-4.01-16.71-4.01s-12.16,1.37-17.12,4.13c-4.95,2.75-8.81,6.7-11.57,11.81-2.75,5.11-4.14,11.06-4.14,17.83s1.4,12.6,4.19,17.71c2.8,5.12,6.7,9.08,11.69,11.87,5,2.8,10.64,4.19,16.94,4.19,7.8,0,14.37-2.03,19.72-6.08,4.64-3.51,7.98-7.87,10.01-13.07,.46-1.17-.4-2.45-1.66-2.45h-14.27c-.65,0-1.23,.37-1.55,.94-2.64,4.65-6.85,6.97-12.61,6.97-4.24,0-7.83-1.34-10.74-4.02-2.92-2.67-4.57-6.38-4.95-11.09h16.31s29.95,0,29.95,0c.92,0,1.67-.69,1.77-1.61,.17-1.47,.25-3.06,.25-4.77,0-6.38-1.36-12.03-4.07-16.95-2.72-4.92-6.54-8.71-11.46-11.39Zm-3.53,23.61h-12.92s-.56,0-.56,0h-15.65c.63-4.41,2.35-7.85,5.15-10.33,2.79-2.48,6.24-3.72,10.32-3.72,4.33,0,8,1.29,10.99,3.85,2.5,2.13,3.98,4.86,4.44,8.17,.15,1.07-.69,2.03-1.77,2.03Z"/><path class="cls-1" d="M431.11,108.51c-2.47,0-4.81,.31-7.02,.92-1.25,.36-2.48,.81-3.66,1.37-2.35,1.1-4.39,2.52-6.14,4.24-.65,.63-1.28,1.33-1.84,2.07v-6.27c0-.8-.65-1.45-1.45-1.45h-12.75c-.8,0-1.45,.65-1.45,1.45v59.01c0,.8,.65,1.45,1.45,1.45h12.75c.8,0,1.45-.65,1.45-1.45v-32.74c0-4.92,1.24-8.7,3.74-11.34,2.5-2.65,5.91-3.98,10.23-3.98,.99,0,1.92,.08,2.8,.21,2.95,.47,5.37,1.73,7.26,3.76,2.45,2.64,3.69,6.42,3.69,11.34v32.74c0,.8,.65,1.45,1.45,1.45h12.74c.8,0,1.45-.65,1.45-1.45v-34.87c0-8.34-2.27-14.84-6.82-19.5-4.53-4.65-10.49-6.98-17.87-6.98Z"/><path class="cls-1" d="M501.93,109.4h-13.06v-13.97c0-.74-.6-1.34-1.34-1.34h-13.08c-.74,0-1.34,.6-1.34,1.34v13.97h-6.55c-.45,0-.82,.37-.82,.82v11.21c0,.45,.37,.82,.82,.82h6.55v29.83c0,12.82,6.59,19.22,19.78,19.22h8.5c.74,0,1.34-.6,1.34-1.34v-10.51c0-.74-.6-1.34-1.34-1.34h-5.93c-2.39,0-4.08-.46-5.08-1.39-1.01-.93-1.51-2.44-1.51-4.52v-29.95h13.06c.44,0,.81-.36,.81-.81v-11.24c0-.44-.36-.81-.81-.81Z"/></g></g><path class="cls-1" d="M516.4,170.13c-1.73-1.73-2.59-3.86-2.59-6.41s.86-4.69,2.59-6.41c1.73-1.73,3.86-2.59,6.41-2.59s4.56,.86,6.29,2.59c1.73,1.73,2.59,3.86,2.59,6.41s-.86,4.69-2.59,6.41c-1.73,1.73-3.82,2.59-6.29,2.59s-4.69-.86-6.41-2.59Z"/></g><g><path class="cls-1" d="M577.99,111.08c-3.76,0-7.22,.74-10.37,2.23-3.15,1.48-5.74,3.53-7.76,6.14v-7.49h-15.2v60.15h15.2v-33.22c0-4.78,1.21-8.45,3.64-11.02,2.42-2.57,5.74-3.85,9.94-3.85s7.38,1.29,9.77,3.85c2.39,2.57,3.58,6.24,3.58,11.02v33.22h15.2v-35.29c0-8.11-2.21-14.42-6.62-18.95-4.42-4.52-10.21-6.79-17.37-6.79Z"/><path class="cls-1" d="M670.44,125.73c-2.71-4.7-6.43-8.34-11.13-10.91-4.71-2.57-9.95-3.85-15.75-3.85s-11.04,1.29-15.74,3.85c-4.71,2.57-8.41,6.21-11.13,10.91-2.72,4.71-4.07,10.14-4.07,16.29s1.32,11.58,3.96,16.29c2.64,4.71,6.28,8.34,10.91,10.91,4.63,2.57,9.84,3.85,15.64,3.85s11.16-1.28,15.91-3.85c4.74-2.57,8.5-6.21,11.29-10.91,2.79-4.7,4.18-10.13,4.18-16.29s-1.36-11.58-4.07-16.29Zm-13.73,26.06c-1.45,2.68-3.38,4.69-5.81,6.03-2.43,1.34-5.01,2.01-7.76,2.01-4.34,0-7.95-1.54-10.8-4.61-2.86-3.08-4.29-7.47-4.29-13.19s1.47-10.11,4.4-13.19c2.93-3.08,6.57-4.61,10.91-4.61s8.02,1.54,11.02,4.61c3,3.08,4.51,7.48,4.51,13.19,0,3.84-.72,7.09-2.17,9.77Z"/></g></g></g></g></svg>