<?xml version="1.0" encoding="UTF-8"?><svg id="Layer_2" xmlns="http://www.w3.org/2000/svg" xmlns:xlink="http://www.w3.org/1999/xlink" viewBox="0 0 1737.47 584.89"><defs><style>.cls-1{fill:#fff;}.cls-2{clip-path:url(#clippath-2);}.cls-3{clip-path:url(#clippath-1);}.cls-4{clip-path:url(#clippath);}.cls-5{clip-path:url(#clippath-3);}.cls-6{fill:#ed1e79;}</style><clipPath id="clippath"><path class="cls-1" d="M304.77,315.96h-28.94c9.65,0,19.29,0,28.94,0h0Z"/></clipPath><clipPath id="clippath-1"><path class="cls-1" d="M304.77,315.96c3.49-7.52,6.27-16.99,7.64-24.9h-36.34c-.51,3.24-.9,6.92-1.01,10.96-.14,5.26,.22,9.95,.77,13.94h0s28.94,0,28.94,0Z"/></clipPath><clipPath id="clippath-2"><path class="cls-1" d="M777.39,315.91h-28.79c9.6,0,19.2,0,28.79,0h0Z"/></clipPath><clipPath id="clippath-3"><path class="cls-1" d="M777.39,315.91c3.47-7.49,6.24-16.91,7.6-24.78h-36.16c-.51,3.22-.9,6.88-1,10.91-.14,5.23,.22,9.9,.77,13.87h0s28.79,0,28.79,0Z"/></clipPath></defs><g id="Layer_1-2"><g><g><path class="cls-6" d="M92.13,0H1645.33c50.88,0,92.13,39.2,92.13,87.56V497.33c0,48.36-41.25,87.56-92.13,87.56H92.13c-50.88,0-92.13-39.2-92.13-87.56V87.56C0,39.2,41.25,0,92.13,0Z"/><path class="cls-6" d="M92.13,0H1645.33c50.88,0,92.13,39.2,92.13,87.56V497.33c0,48.36-41.25,87.56-92.13,87.56H92.13c-50.88,0-92.13-39.2-92.13-87.56V87.56C0,39.2,41.25,0,92.13,0Z"/><path class="cls-6" d="M92.13,0H1645.33c50.88,0,92.13,39.2,92.13,87.56V497.33c0,48.36-41.25,87.56-92.13,87.56H92.13c-50.88,0-92.13-39.2-92.13-87.56V87.56C0,39.2,41.25,0,92.13,0Z"/><path class="cls-6" d="M92.13,0H1645.33c50.88,0,92.13,39.2,92.13,87.56V497.33c0,48.36-41.25,87.56-92.13,87.56H92.13c-50.88,0-92.13-39.2-92.13-87.56V87.56C0,39.2,41.25,0,92.13,0Z"/><path class="cls-6" d="M92.13,0H1645.33c50.88,0,92.13,39.2,92.13,87.56V497.33c0,48.36-41.25,87.56-92.13,87.56H92.13c-50.88,0-92.13-39.2-92.13-87.56V87.56C0,39.2,41.25,0,92.13,0Z"/><path class="cls-6" d="M92.13,0H1645.33c50.88,0,92.13,39.2,92.13,87.56V497.33c0,48.36-41.25,87.56-92.13,87.56H92.13c-50.88,0-92.13-39.2-92.13-87.56V87.56C0,39.2,41.25,0,92.13,0Z"/><path class="cls-6" d="M92.13,0H1645.33c50.88,0,92.13,39.2,92.13,87.56V497.33c0,48.36-41.25,87.56-92.13,87.56H92.13c-50.88,0-92.13-39.2-92.13-87.56V87.56C0,39.2,41.25,0,92.13,0Z"/></g><g><g><g><g><path class="cls-1" d="M275.06,302.02c.11-4.04,.5-7.72,1.01-10.96h0c1.42-9.88,5.26-17.59,11.54-23.17,6.25-5.55,13.99-8.34,23.15-8.34,9.71,0,17.93,2.88,24.64,8.63,5.6,4.78,8.92,10.89,9.96,18.32,.34,2.4-1.55,4.56-3.98,4.56h-28.96c-1.37,7.91-4.16,17.38-7.64,24.9h74.8c2.05,0,3.74-1.56,3.97-3.6,.37-3.29,.56-6.86,.56-10.7,0-14.3-3.05-26.97-9.13-38-6.1-11.03-14.66-19.54-25.69-25.55-11.03-5.98-23.51-8.99-37.47-8.99s-27.26,3.08-38.38,9.25c-11.1,6.18-19.76,15.02-25.93,26.49-6.18,11.46-9.28,24.8-9.28,39.97s3.15,28.24,9.4,39.71c6.27,11.49,15.02,20.36,26.22,26.61,11.2,6.27,23.87,9.4,37.98,9.4,17.5,0,32.23-4.54,44.22-13.63,10.4-7.88,17.89-17.65,22.45-29.31,1.03-2.63-.9-5.49-3.72-5.49h-31.98c-1.46,0-2.76,.84-3.49,2.11-5.92,10.42-15.35,15.63-28.28,15.63-9.52,0-17.55-3-24.08-9.01-6.54-5.98-10.24-14.3-11.1-24.88h0c-.55-3.99-.91-8.68-.77-13.94Z"/><g><path class="cls-1" d="M304.77,315.96h-28.94c9.65,0,19.29,0,28.94,0h0Z"/><g class="cls-4"><rect class="cls-1" x="275.83" y="315.96" width=".45" height="0"/><rect class="cls-1" x="276.27" y="315.96" width="1.25" height="0"/><rect class="cls-1" x="277.52" y="315.96" width="1.25" height="0"/><rect class="cls-1" x="278.77" y="315.96" width="1.25" height="0"/><rect class="cls-1" x="280.01" y="315.96" width="1.25" height="0"/><rect class="cls-1" x="281.26" y="315.96" width="1.25" height="0"/><rect class="cls-1" x="282.5" y="315.96" width="1.25" height="0"/><rect class="cls-1" x="283.75" y="315.96" width="1.25" height="0"/><rect class="cls-1" x="285" y="315.96" width="1.25" height="0"/><rect class="cls-1" x="286.24" y="315.96" width="1.25" height="0"/><rect class="cls-1" x="287.49" y="315.96" width="1.25" height="0"/><rect class="cls-1" x="288.73" y="315.96" width="1.25" height="0"/><rect class="cls-1" x="289.98" y="315.96" width="1.25" height="0"/><rect class="cls-1" x="291.23" y="315.96" width="1.25" height="0"/><rect class="cls-1" x="292.47" y="315.96" width="1.25" height="0"/><rect class="cls-1" x="293.72" y="315.96" width="1.25" height="0"/><rect class="cls-1" x="294.96" y="315.96" width="1.25" height="0"/><rect class="cls-1" x="296.21" y="315.96" width="1.25" height="0"/><rect class="cls-1" x="297.46" y="315.96" width="1.25" height="0"/><rect class="cls-1" x="298.7" y="315.96" width="1.25" height="0"/><rect class="cls-1" x="299.95" y="315.96" width="1.25" height="0"/><rect class="cls-1" x="301.19" y="315.96" width="1.25" height="0"/><rect class="cls-1" x="302.44" y="315.96" width="1.25" height="0"/><rect class="cls-1" x="303.69" y="315.96" width="1.08" height="0"/></g></g><path class="cls-1" d="M304.77,315.96c3.49-7.52,6.27-16.99,7.64-24.9h-36.34c-.51,3.24-.9,6.92-1.01,10.96-.14,5.26,.22,9.95,.77,13.94h0s28.94,0,28.94,0Z"/><g><path class="cls-1" d="M304.77,315.96c3.49-7.52,6.27-16.99,7.64-24.9h-36.34c-.51,3.24-.9,6.92-1.01,10.96-.14,5.26,.22,9.95,.77,13.94h0s28.94,0,28.94,0Z"/><g class="cls-3"><rect class="cls-1" x="274.92" y="291.06" width=".11" height="24.9"/><rect class="cls-1" x="275.03" y="291.06" width="1.25" height="24.9"/><rect class="cls-1" x="276.27" y="291.06" width="1.25" height="24.9"/><rect class="cls-1" x="277.52" y="291.06" width="1.25" height="24.9"/><rect class="cls-1" x="278.77" y="291.06" width="1.25" height="24.9"/><rect class="cls-1" x="280.01" y="291.06" width="1.25" height="24.9"/><rect class="cls-1" x="281.26" y="291.06" width="1.25" height="24.9"/><rect class="cls-1" x="282.5" y="291.06" width="1.25" height="24.9"/><rect class="cls-1" x="283.75" y="291.06" width="1.25" height="24.9"/><rect class="cls-1" x="285" y="291.06" width="1.25" height="24.9"/><rect class="cls-1" x="286.24" y="291.06" width="1.25" height="24.9"/><rect class="cls-1" x="287.49" y="291.06" width="1.25" height="24.9"/><rect class="cls-1" x="288.73" y="291.06" width="1.25" height="24.9"/><rect class="cls-1" x="289.98" y="291.06" width="1.25" height="24.9"/><rect class="cls-1" x="291.23" y="291.06" width="1.25" height="24.9"/><rect class="cls-1" x="292.47" y="291.06" width="1.25" height="24.9"/><rect class="cls-1" x="293.72" y="291.06" width="1.25" height="24.9"/><rect class="cls-1" x="294.96" y="291.06" width="1.25" height="24.9"/><rect class="cls-1" x="296.21" y="291.06" width="1.25" height="24.9"/><rect class="cls-1" x="297.46" y="291.06" width="1.25" height="24.9"/><rect class="cls-1" x="298.7" y="291.06" width="1.25" height="24.9"/><rect class="cls-1" x="299.95" y="291.06" width="1.25" height="24.9"/><rect class="cls-1" x="301.19" y="291.06" width="1.25" height="24.9"/><rect class="cls-1" x="302.44" y="291.06" width="1.25" height="24.9"/><rect class="cls-1" x="303.69" y="291.06" width="1.25" height="24.9"/><rect class="cls-1" x="304.93" y="291.06" width="1.25" height="24.9"/><rect class="cls-1" x="306.18" y="291.06" width="1.25" height="24.9"/><rect class="cls-1" x="307.42" y="291.06" width="1.25" height="24.9"/><rect class="cls-1" x="308.67" y="291.06" width="1.25" height="24.9"/><rect class="cls-1" x="309.92" y="291.06" width="1.25" height="24.9"/><rect class="cls-1" x="311.16" y="291.06" width="1.25" height="24.9"/></g></g></g><g><path class="cls-1" d="M747.84,302.04c.11-4.02,.5-7.68,1-10.91h0c1.41-9.83,5.24-17.51,11.48-23.05,6.22-5.52,13.92-8.3,23.03-8.3,9.66,0,17.84,2.87,24.51,8.59,5.57,4.75,8.87,10.84,9.91,18.23,.33,2.39-1.55,4.54-3.96,4.54h-28.82c-1.36,7.87-4.14,17.29-7.6,24.78h74.43c2.04,0,3.72-1.55,3.95-3.58,.37-3.28,.56-6.82,.56-10.65,0-14.23-3.04-26.83-9.09-37.81-6.07-10.98-14.59-19.44-25.56-25.42-10.98-5.95-23.39-8.94-37.28-8.94s-27.12,3.06-38.19,9.21c-11.05,6.15-19.66,14.95-25.8,26.35-6.15,11.41-9.23,24.68-9.23,39.77s3.13,28.1,9.35,39.51c6.24,11.43,14.95,20.26,26.09,26.47,11.14,6.24,23.75,9.35,37.79,9.35,17.41,0,32.07-4.52,44-13.56,10.35-7.84,17.8-17.56,22.34-29.16,1.02-2.62-.89-5.47-3.7-5.47h-31.82c-1.45,0-2.75,.83-3.47,2.1-5.89,10.37-15.28,15.55-28.14,15.55-9.47,0-17.46-2.99-23.96-8.97-6.5-5.95-10.19-14.23-11.05-24.75h0c-.55-3.97-.91-8.64-.77-13.87Z"/><g><path class="cls-1" d="M777.39,315.91h-28.79c9.6,0,19.2,0,28.79,0h0Z"/><g class="cls-2"><rect class="cls-1" x="748.6" y="315.91" width=".44" height="0"/><rect class="cls-1" x="749.04" y="315.91" width="1.24" height="0"/><rect class="cls-1" x="750.28" y="315.91" width="1.24" height="0"/><rect class="cls-1" x="751.52" y="315.91" width="1.24" height="0"/><rect class="cls-1" x="752.76" y="315.91" width="1.24" height="0"/><rect class="cls-1" x="754" y="315.91" width="1.24" height="0"/><rect class="cls-1" x="755.24" y="315.91" width="1.24" height="0"/><rect class="cls-1" x="756.48" y="315.91" width="1.24" height="0"/><rect class="cls-1" x="757.72" y="315.91" width="1.24" height="0"/><rect class="cls-1" x="758.96" y="315.91" width="1.24" height="0"/><rect class="cls-1" x="760.2" y="315.91" width="1.24" height="0"/><rect class="cls-1" x="761.44" y="315.91" width="1.24" height="0"/><rect class="cls-1" x="762.68" y="315.91" width="1.24" height="0"/><rect class="cls-1" x="763.92" y="315.91" width="1.24" height="0"/><rect class="cls-1" x="765.16" y="315.91" width="1.24" height="0"/><rect class="cls-1" x="766.4" y="315.91" width="1.24" height="0"/><rect class="cls-1" x="767.64" y="315.91" width="1.24" height="0"/><rect class="cls-1" x="768.88" y="315.91" width="1.24" height="0"/><rect class="cls-1" x="770.12" y="315.91" width="1.24" height="0"/><rect class="cls-1" x="771.36" y="315.91" width="1.24" height="0"/><rect class="cls-1" x="772.6" y="315.91" width="1.24" height="0"/><rect class="cls-1" x="773.84" y="315.91" width="1.24" height="0"/><rect class="cls-1" x="775.08" y="315.91" width="1.24" height="0"/><rect class="cls-1" x="776.32" y="315.91" width="1.07" height="0"/></g></g><path class="cls-1" d="M777.39,315.91c3.47-7.49,6.24-16.91,7.6-24.78h-36.16c-.51,3.22-.9,6.88-1,10.91-.14,5.23,.22,9.9,.77,13.87h0s28.79,0,28.79,0Z"/><g><path class="cls-1" d="M777.39,315.91c3.47-7.49,6.24-16.91,7.6-24.78h-36.16c-.51,3.22-.9,6.88-1,10.91-.14,5.23,.22,9.9,.77,13.87h0s28.79,0,28.79,0Z"/><g class="cls-5"><rect class="cls-1" x="747.69" y="291.13" width=".11" height="24.78"/><rect class="cls-1" x="747.81" y="291.13" width="1.24" height="24.78"/><rect class="cls-1" x="749.04" y="291.13" width="1.24" height="24.78"/><rect class="cls-1" x="750.28" y="291.13" width="1.24" height="24.78"/><rect class="cls-1" x="751.52" y="291.13" width="1.24" height="24.78"/><rect class="cls-1" x="752.76" y="291.13" width="1.24" height="24.78"/><rect class="cls-1" x="754" y="291.13" width="1.24" height="24.78"/><rect class="cls-1" x="755.24" y="291.13" width="1.24" height="24.78"/><rect class="cls-1" x="756.48" y="291.13" width="1.24" height="24.78"/><rect class="cls-1" x="757.72" y="291.13" width="1.24" height="24.78"/><rect class="cls-1" x="758.96" y="291.13" width="1.24" height="24.78"/><rect class="cls-1" x="760.2" y="291.13" width="1.24" height="24.78"/><rect class="cls-1" x="761.44" y="291.13" width="1.24" height="24.78"/><rect class="cls-1" x="762.68" y="291.13" width="1.24" height="24.78"/><rect class="cls-1" x="763.92" y="291.13" width="1.24" height="24.78"/><rect class="cls-1" x="765.16" y="291.13" width="1.24" height="24.78"/><rect class="cls-1" x="766.4" y="291.13" width="1.24" height="24.78"/><rect class="cls-1" x="767.64" y="291.13" width="1.24" height="24.78"/><rect class="cls-1" x="768.88" y="291.13" width="1.24" height="24.78"/><rect class="cls-1" x="770.12" y="291.13" width="1.24" height="24.78"/><rect class="cls-1" x="771.36" y="291.13" width="1.24" height="24.78"/><rect class="cls-1" x="772.6" y="291.13" width="1.24" height="24.78"/><rect class="cls-1" x="773.84" y="291.13" width="1.24" height="24.78"/><rect class="cls-1" x="775.08" y="291.13" width="1.24" height="24.78"/><rect class="cls-1" x="776.32" y="291.13" width="1.24" height="24.78"/><rect class="cls-1" x="777.56" y="291.13" width="1.24" height="24.78"/><rect class="cls-1" x="778.8" y="291.13" width="1.24" height="24.78"/><rect class="cls-1" x="780.04" y="291.13" width="1.24" height="24.78"/><rect class="cls-1" x="781.28" y="291.13" width="1.24" height="24.78"/><rect class="cls-1" x="782.52" y="291.13" width="1.24" height="24.78"/><rect class="cls-1" x="783.76" y="291.13" width="1.24" height="24.78"/></g></g></g><g><path class="cls-1" d="M663.82,238.16c-1.43,0-2.7,.92-3.14,2.28l-18.26,55.5-16.06,48.72s0-.02-.02-.1l-34.32-104.13c-.45-1.36-1.72-2.27-3.14-2.27h-30.42c-2.3,0-3.9,2.29-3.11,4.45l48.66,132.18c.48,1.3,1.72,2.17,3.11,2.17h37.98c1.39,0,2.62-.86,3.11-2.16l17.63-47.66,31.28-84.52c.8-2.16-.8-4.46-3.11-4.46h-30.17Z"/><path class="cls-1" d="M665.83,327.14l-17.79,48.09c-.27,.72-1.23,.82-1.65,.18l-20.02-30.75,16.06-48.72c7.72,7.52,16.66,19.23,23.41,31.2Z"/></g><g><path class="cls-1" d="M506.29,238.16c-1.43,0-2.7,.92-3.14,2.28l-18.26,55.5-16.06,48.72s0-.02-.02-.1l-34.32-104.13c-.45-1.36-1.72-2.27-3.14-2.27h-30.42c-2.3,0-3.9,2.29-3.11,4.45l48.66,132.18c.48,1.3,1.72,2.17,3.11,2.17h37.98c1.39,0,2.62-.86,3.11-2.16l17.63-47.66,31.28-84.52c.8-2.16-.8-4.46-3.11-4.46h-30.17Z"/><path class="cls-1" d="M508.29,327.14l-17.79,48.09c-.27,.72-1.23,.82-1.65,.18l-20.02-30.75,16.06-48.72c7.72,7.52,16.66,19.23,23.41,31.2Z"/></g><g><path class="cls-1" d="M996.08,252.08c-10.12-10.38-23.41-15.57-39.87-15.57-5.5,0-10.74,.69-15.66,2.06-2.8,.81-5.52,1.82-8.15,3.06-5.24,2.46-9.81,5.62-13.7,9.47-1.46,1.41-2.85,2.97-4.11,4.62v-13.99c0-1.78-1.45-3.23-3.23-3.23h-28.45c-1.78,0-3.23,1.45-3.23,3.23v131.64c0,1.78,1.45,3.23,3.23,3.23h28.45c1.78,0,3.23-1.45,3.23-3.23v-73.03c0-10.98,2.77-19.42,8.35-25.3,5.57-5.91,13.18-8.87,22.81-8.87,2.2,0,4.28,.17,6.24,.48,6.58,1.05,11.98,3.85,16.19,8.39,5.48,5.88,8.23,14.32,8.23,25.3v73.03c0,1.78,1.45,3.23,3.23,3.23h28.43c1.78,0,3.23-1.45,3.23-3.23v-77.79c0-18.61-5.07-33.1-15.21-43.5Z"/><path class="cls-1" d="M951.98,266.64c-1.96-.31-4.04-.48-6.24-.48-9.64,0-17.24,2.97-22.81,8.87-5.57,5.88-8.35,14.32-8.35,25.3v-44.62l4.11-4.62c3.9-3.85,8.47-7.01,13.7-9.47,2.63-1.24,5.36-2.25,8.15-3.06,3.54,2.56,7.58,6.22,9.9,10.86,2.37,4.76,2.39,11.26,1.53,17.22Z"/></g><g><path class="cls-1" d="M1116.01,264.19v-22.7c0-1.65-1.34-2.99-2.99-2.99h-27.94v-31.16c0-1.65-1.34-2.99-2.99-2.99h-29.18c-1.65,0-2.99,1.34-2.99,2.99v31.16h-13.47c-1.65,0-2.99,1.34-2.99,2.99v22.7c0,1.65,1.34,2.99,2.99,2.99h13.47v66.55c0,28.6,14.71,42.88,44.12,42.88h18.97c1.65,0,2.99-1.34,2.99-2.99v-23.44c0-1.65-1.34-2.99-2.99-2.99h-13.23c-5.33,0-9.11-1.03-11.34-3.11-2.25-2.08-3.37-5.45-3.37-10.09v-66.82h27.94c1.65,0,2.99-1.34,2.99-2.99Z"/><path class="cls-1" d="M1116.01,240.29v25.08c0,.99-.8,1.8-1.8,1.8h-29.13v-28.67h29.13c.99,0,1.8,.8,1.8,1.8Z"/><path class="cls-1" d="M1049.94,238.5v28.67h-14.62c-1.01,0-1.84-.82-1.84-1.84v-25c0-1.01,.82-1.84,1.84-1.84h14.62Z"/></g></g><path class="cls-1" d="M1146.5,373.98c-3.85-3.85-5.78-8.62-5.78-14.31s1.93-10.45,5.78-14.3c3.85-3.85,8.62-5.78,14.3-5.78s10.18,1.93,14.03,5.78c3.85,3.85,5.77,8.62,5.77,14.3s-1.92,10.45-5.77,14.31c-3.85,3.85-8.53,5.77-14.03,5.77s-10.45-1.92-14.3-5.77Z"/></g><g><path class="cls-1" d="M1322.66,257.37c9.85,10.09,14.77,24.18,14.77,42.27v78.73h-33.91v-74.12c0-10.66-2.67-18.85-7.99-24.59-5.33-5.73-12.6-8.6-21.8-8.6s-16.76,2.87-22.17,8.6c-5.41,5.73-8.11,13.93-8.11,24.59v74.12h-33.91V244.17h33.91v16.71c4.52-5.81,10.29-10.38,17.32-13.69,7.02-3.31,14.73-4.96,23.13-4.96,15.99,0,28.91,5.05,38.76,15.14Z"/><path class="cls-1" d="M1394.37,371.95c-10.34-5.73-18.45-13.85-24.34-24.35-5.9-10.49-8.84-22.61-8.84-36.33s3.03-25.84,9.08-36.34c6.05-10.5,14.33-18.61,24.83-24.34,10.5-5.73,22.2-8.6,35.12-8.6s24.63,2.87,35.13,8.6c10.49,5.73,18.77,13.85,24.83,24.34,6.05,10.5,9.08,22.61,9.08,36.34s-3.11,25.84-9.33,36.33c-6.22,10.5-14.62,18.62-25.19,24.35-10.58,5.73-22.41,8.6-35.49,8.6s-24.55-2.87-34.88-8.6Zm52.2-25.44c5.41-2.99,9.73-7.47,12.96-13.44,3.23-5.97,4.84-13.24,4.84-21.8,0-12.76-3.36-22.57-10.05-29.43-6.7-6.86-14.9-10.29-24.59-10.29s-17.8,3.43-24.34,10.29c-6.54,6.87-9.81,16.68-9.81,29.43s3.19,22.57,9.57,29.43c6.38,6.86,14.41,10.29,24.1,10.29,6.13,0,11.91-1.49,17.32-4.48Z"/></g></g></g></g></svg>